<svg width="41" height="41" viewBox="0 0 41 41" fill="none" xmlns="http://www.w3.org/2000/svg">
<path d="M34.5938 14.0938H37.1562V19.2188H34.5938V14.0938Z" fill="#7FC0C5"/>
<path d="M3.84375 14.0938H6.40625V19.2188H3.84375V14.0938Z" fill="#7FC0C5"/>
<path d="M25.625 25.625H28.1875V28.1875H25.625V25.625Z" fill="#7FC0C5"/>
<path d="M12.8125 25.625H15.375V28.1875H12.8125V25.625Z" fill="#7FC0C5"/>
<path d="M26.9062 5.125H14.0938C12.3953 5.12703 10.7671 5.80263 9.56609 7.00359C8.36513 8.20456 7.68953 9.83283 7.6875 11.5312V29.4688C7.68818 30.1482 7.95837 30.7995 8.43879 31.28C8.9192 31.7604 9.57059 32.0306 10.25 32.0312V35.875H12.8125V32.0312H28.1875V35.875H30.75V32.0312C31.4293 32.0302 32.0805 31.7599 32.5608 31.2796C33.0412 30.7992 33.3115 30.1481 33.3125 29.4688V11.5312C33.3105 9.83283 32.6349 8.20456 31.4339 7.00359C30.2329 5.80263 28.6047 5.12703 26.9062 5.125ZM30.75 12.8125V20.5H10.25V12.8125H30.75ZM14.0938 7.6875H26.9062C27.6986 7.68985 28.4708 7.93744 29.1168 8.39626C29.7629 8.85508 30.251 9.50263 30.5142 10.25H10.4857C10.749 9.50263 11.2371 8.85508 11.8832 8.39626C12.5292 7.93744 13.3014 7.68985 14.0938 7.6875ZM10.25 29.4688V23.0625H30.7513L30.7526 29.4688H10.25Z" fill="#7FC0C5"/>
</svg>
