<svg width="143" height="41" viewBox="0 0 143 41" fill="none" xmlns="http://www.w3.org/2000/svg">
<rect x="25.1892" y="4.5498" width="10.5441" height="10.5441" rx="3" fill="#D08181"/>
<path d="M7.45587 12.6975H9.37298L10.3315 15.0939L12.2486 12.6975H13.6865C15.2202 13.8478 15.6036 19.5672 15.6036 22.2831H5.53875C4.77191 19.9826 6.49731 14.9342 7.45587 12.6975Z" fill="#283C43"/>
<circle cx="8.89374" cy="17.9696" r="0.958557" fill="white"/>
<path d="M11.1686 0.715576C11.4455 0.777544 11.7225 0.829183 11.9891 0.911807C13.6813 1.44886 14.789 2.56428 15.3223 4.26838C15.3531 4.36134 15.3838 4.46461 15.4043 4.55757C15.63 4.60921 15.8454 4.64019 16.0505 4.71248C16.912 5.00167 17.4248 5.8279 17.3325 6.76774C17.2504 7.62496 16.5325 8.35824 15.63 8.44087C15.3941 8.46152 15.312 8.54415 15.2402 8.75071C14.5531 10.7543 12.6968 12.0866 10.6148 12.0866C8.54311 12.0866 6.68678 10.7647 5.98938 8.75071C5.91758 8.54415 5.83554 8.45119 5.59965 8.43054C4.63559 8.33759 3.90742 7.53201 3.87665 6.56118C3.84588 5.642 4.50226 4.80544 5.43555 4.64019C5.75349 4.58855 5.85605 4.44396 5.94835 4.15478C6.58422 2.29575 7.87647 1.18033 9.80459 0.787872C9.87638 0.777544 9.94818 0.736232 10.02 0.715576C10.3994 0.715576 10.7789 0.715576 11.1686 0.715576ZM9.30205 4.53691C9.25077 4.61953 9.20975 4.70216 9.14821 4.77445C8.2662 5.67298 7.19958 6.0138 5.96886 5.81757C5.63042 5.76593 5.31248 5.83823 5.18941 6.15839C5.10736 6.39594 5.11762 6.72643 5.22018 6.95365C5.36376 7.25316 5.6817 7.32545 6.02014 7.24283C6.62525 7.08791 6.82011 7.2325 6.96369 7.84185C7.03548 8.14136 7.11753 8.44087 7.2406 8.71972C7.92775 10.2276 9.44563 11.0642 11.1379 10.8679C12.6557 10.6924 13.9377 9.47366 14.2659 7.87283C14.3993 7.2325 14.6146 7.08791 15.2197 7.24283C15.5582 7.32545 15.8248 7.2325 16.03 6.96397C16.2146 6.70578 16.2248 6.42692 16.0607 6.16872C15.8761 5.86921 15.6095 5.77626 15.2608 5.8279C14.8813 5.88987 14.5018 5.96216 14.1223 5.97249C12.3788 6.03446 10.7687 5.63167 9.30205 4.53691ZM14.1839 4.76412C13.9788 3.1633 12.1224 1.77935 10.4097 1.91362C8.79951 2.04788 7.08676 3.44215 7.13804 4.60921C7.76366 4.46461 8.22517 4.11346 8.57388 3.58674C9.0354 2.9051 9.23026 2.89477 9.86613 3.44215C11.0968 4.52658 12.5737 4.83642 14.1839 4.76412Z" fill="black"/>
<path d="M27.045 33.3518C27.045 33.5274 27.045 33.672 27.045 33.8476C27.5167 33.9199 28.1423 33.7133 28.2141 34.4673C28.2552 34.8597 27.9988 34.9837 27.0655 35.0869C27.0655 35.4587 27.0655 35.8305 27.0655 36.254C27.4142 36.254 27.7629 36.2437 28.1013 36.254C28.5116 36.2643 28.7782 36.4915 28.7782 36.8324C28.7885 37.1938 28.5218 37.4314 28.0808 37.4417C27.7629 37.452 27.4449 37.452 27.1168 37.452C27.1065 37.452 27.0962 37.4624 27.045 37.4727C27.045 38.0201 27.045 38.5778 27.045 39.1768C27.9885 39.1768 28.9321 39.1768 29.8961 39.1768C29.8961 31.3276 29.8961 23.4887 29.8961 15.5981C29.7628 15.5878 29.6295 15.5775 29.4961 15.5775C28.7885 15.5671 28.0808 15.5981 27.3834 15.5465C26.0399 15.4329 25.045 14.3898 25.0245 13.0368C24.9938 11.0332 24.9938 9.02957 25.0245 7.03628C25.0553 5.61103 26.1732 4.53692 27.5783 4.52659C29.1372 4.51627 30.7063 4.52659 32.2652 4.52659C32.7062 4.52659 32.9729 4.75381 32.9832 5.10496C32.9934 5.47676 32.7165 5.70398 32.2447 5.70398C30.7679 5.70398 29.3013 5.70398 27.8244 5.70398C26.727 5.70398 26.204 6.24103 26.204 7.34612C26.204 9.1535 26.204 10.9609 26.204 12.7683C26.204 13.8527 26.727 14.3794 27.8142 14.3794C29.6295 14.3794 31.455 14.3794 33.2703 14.3794C34.2446 14.3794 34.8087 13.8217 34.8087 12.8509C34.819 10.9815 34.8087 9.11219 34.8087 7.23251C34.8087 6.81939 34.6959 6.45792 34.419 6.12742C34.1421 5.80726 34.1729 5.46643 34.4498 5.23922C34.7164 5.02233 35.0549 5.06365 35.3318 5.37348C35.7625 5.84857 35.9882 6.4166 35.9882 7.06726C35.9984 9.0399 36.0087 11.0125 35.9882 12.9955C35.9779 14.3381 34.9933 15.4226 33.6703 15.5362C32.9832 15.5981 32.2858 15.5671 31.5986 15.5775C31.4448 15.5775 31.2909 15.5775 31.1166 15.5775C31.1166 23.4577 31.1166 31.2966 31.1166 39.2078C31.5268 39.2078 31.9473 39.2078 32.3678 39.2078C32.696 39.2078 33.0344 39.1974 33.3626 39.2181C33.6908 39.2388 33.9165 39.4763 33.9267 39.7861C33.9267 40.096 33.7113 40.3438 33.3831 40.3852C33.2703 40.3955 33.1575 40.3955 33.0344 40.3955C23.2503 40.3955 13.4763 40.3955 3.69214 40.3955C3.59984 40.3955 3.50754 40.3955 3.42549 40.3955C3.04602 40.3748 2.81013 40.127 2.82039 39.7861C2.83064 39.4556 3.05628 39.2284 3.42549 39.2181C4.15366 39.2078 4.88184 39.2181 5.62026 39.2181C5.71257 39.2181 5.79462 39.2181 5.91769 39.2181C4.9844 32.4843 4.60493 25.7505 4.94337 18.9547C4.76902 18.9547 4.52288 18.965 4.26648 18.9547C3.39472 18.9237 2.52297 18.9237 1.66147 18.8514C1.34353 18.8204 1.01534 18.6759 0.728173 18.5209C0.235887 18.2524 0 17.8083 0 17.2506C0.010256 16.2901 0.37947 15.4949 1.14867 14.9165C1.9794 14.2968 2.94346 14.0489 3.93829 13.925C4.64595 13.8321 5.36387 13.8011 6.08178 13.7598C6.29716 13.7494 6.42023 13.6978 6.51253 13.4809C7.10738 12.035 6.97405 12.2416 8.40989 12.2209C8.56372 12.2209 8.71756 12.2312 8.8714 12.2209C9.20985 12.2002 9.45599 12.3345 9.6406 12.6237C9.93802 13.0781 10.2457 13.5119 10.5944 14.018C10.9021 13.5739 11.2098 13.1607 11.4662 12.727C11.702 12.3345 12.0097 12.1796 12.4507 12.2106C12.8199 12.2312 13.1892 12.2209 13.5686 12.2106C13.9481 12.2002 14.2353 12.3448 14.3481 12.7063C14.5224 13.295 14.9327 13.6358 15.4147 13.987C16.9018 15.0611 17.8146 16.5793 18.4607 18.2627C19.4863 20.917 19.6607 23.6229 18.8197 26.3702C18.6761 26.8349 18.4094 27.0311 18.0505 26.9279C17.671 26.8143 17.5479 26.5044 17.6915 26.019C18.7274 22.4146 18.0813 19.1096 15.8865 16.0939C15.7737 15.939 15.6403 15.8047 15.466 15.6808C15.6096 16.2694 15.7531 16.8581 15.8865 17.4468C16.3788 19.7086 16.4813 22.0014 16.389 24.3046C16.2557 27.3513 16.1531 30.3877 15.948 33.4345C15.8249 35.2212 15.5275 36.9976 15.3121 38.774C15.2916 38.8979 15.2814 39.0219 15.2711 39.1871C16.3788 39.1871 17.4659 39.1871 18.5633 39.1871C18.5633 38.6191 18.5633 38.0614 18.5633 37.452C18.1941 37.452 17.8454 37.452 17.4864 37.452C17.0454 37.4417 16.7993 37.2145 16.8095 36.8427C16.8198 36.4812 17.0557 36.285 17.4864 36.2746C17.8454 36.2643 18.1941 36.2746 18.5735 36.2746C18.5735 35.8615 18.5735 35.4897 18.5735 35.1076C18.112 34.994 17.3531 35.2832 17.3838 34.4466C17.4146 33.6927 18.1018 33.9509 18.5735 33.8682C18.5735 33.6927 18.5735 33.5377 18.5735 33.3622C18.0915 33.2692 17.4044 33.5171 17.3736 32.7012C17.3531 32.2881 17.6095 32.1745 18.553 32.1228C18.6453 31.7923 18.7684 31.4618 19.2094 31.4825C19.5786 31.5031 19.7427 31.751 19.7837 32.1125C21.7837 32.1125 23.7836 32.1125 25.7937 32.1125C25.8655 31.782 25.9989 31.4928 26.3988 31.4825C26.8193 31.4722 26.9629 31.7613 27.0347 32.1125C27.5065 32.1745 28.1013 31.9989 28.1936 32.7218C28.2654 33.0833 28.0193 33.2176 27.045 33.3518ZM6.04076 22.9413C5.71257 25.2444 6.6356 37.7206 7.24071 39.1768C7.52787 39.2594 7.62018 39.1561 7.64069 38.8566C7.71248 37.7412 7.79453 36.6155 7.89709 35.5C7.93811 35.0663 8.21502 34.8391 8.57398 34.8804C8.91243 34.9217 9.10729 35.2109 9.07652 35.624C9.04575 35.9441 9.00473 36.2643 8.98422 36.5845C8.92268 37.4417 8.86115 38.2989 8.79961 39.1665C10.0508 39.1665 11.261 39.1665 12.4918 39.1665C12.4815 38.9599 12.4712 38.7947 12.461 38.6294C12.3482 37.3178 12.2866 35.9958 12.102 34.6945C11.7226 31.9266 11.2713 29.1587 10.8405 26.4011C10.82 26.2875 10.7072 26.1946 10.6354 26.1016C10.5739 26.1946 10.4713 26.2875 10.4508 26.3908C10.2457 27.4236 10.0508 28.4667 9.87649 29.5098C9.68162 30.6976 9.52778 31.8853 9.35343 33.073C9.2919 33.4654 9.04575 33.672 8.70731 33.641C8.35861 33.61 8.15349 33.3209 8.18425 32.9181C8.19451 32.7528 8.22528 32.5876 8.25605 32.4223C8.64577 30.1089 9.0355 27.7954 9.42522 25.482C9.49702 25.0688 9.70214 24.9139 10.1124 24.9036C10.4406 24.8933 10.779 24.9036 11.1072 24.9036C11.5687 24.9139 11.7636 25.0688 11.8559 25.5129C12.7789 29.9126 13.3635 34.3536 13.6302 38.8463C13.6507 39.1974 13.7635 39.2801 14.1019 39.1458C15.0147 33.7959 15.1788 28.3841 15.2711 22.9516C12.1533 22.5385 9.09703 22.5385 6.04076 22.9413ZM6.51253 17.6121C6.88175 17.6431 7.11763 17.6534 7.34327 17.3229C7.86632 16.5586 8.98422 16.414 9.57906 17.106C10.0201 17.6224 10.4303 18.1388 11.0046 18.5313C11.261 18.7068 11.2405 19.1096 11.0354 19.3265C10.7995 19.5744 10.5226 19.6054 10.2457 19.4091C10.1226 19.3265 9.99956 19.2336 9.88674 19.1613C9.01499 20.0185 7.98939 20.0391 7.35352 19.2439C7.00482 18.7998 6.85098 18.7585 6.23562 18.9341C6.15357 19.8429 6.06127 20.7828 5.96897 21.7639C9.10729 21.3818 12.1738 21.3921 15.2301 21.7432C15.2301 21.4747 15.2404 21.2682 15.2301 21.0616C15.0557 18.5519 14.5224 16.1145 13.5584 13.7907C13.4968 13.6462 13.343 13.4396 13.2404 13.4396C12.9225 13.4499 12.5533 13.2537 12.3071 13.6565C11.9482 14.2245 11.5585 14.7719 11.179 15.3089C10.8508 15.7737 10.4201 15.7737 10.0919 15.3089C9.75342 14.8235 9.42523 14.3381 9.08678 13.8424C8.80987 13.4396 8.38937 13.2847 7.94837 13.4189C7.88683 13.4396 7.81504 13.5016 7.79453 13.5635C7.22019 14.8442 6.80996 16.1868 6.51253 17.6121ZM19.8145 39.1561C21.8554 39.1561 23.8451 39.1561 25.8245 39.1561C25.8245 38.5674 25.8245 37.9994 25.8245 37.4624C23.8041 37.4624 21.8144 37.4624 19.8145 37.4624C19.8145 38.0407 19.8145 38.5984 19.8145 39.1561ZM5.94846 14.9268C5.59975 14.9475 5.28182 14.9165 4.97414 14.9785C4.12289 15.1334 3.27165 15.2883 2.44092 15.5258C1.89735 15.6808 1.48711 16.0732 1.30251 16.6413C1.07688 17.3229 1.22046 17.6224 1.91786 17.6637C2.96397 17.7257 4.01008 17.705 5.05619 17.6844C5.14849 17.6844 5.29207 17.5191 5.32284 17.4158C5.52796 16.6826 5.71257 15.9493 5.90743 15.216C5.92794 15.1334 5.92794 15.0508 5.94846 14.9268ZM19.8145 36.223C21.8349 36.223 23.8348 36.223 25.8245 36.223C25.8245 35.8202 25.8245 35.4587 25.8245 35.0766C23.8143 35.0766 21.8247 35.0766 19.8145 35.0766C19.8145 35.4691 19.8145 35.8305 19.8145 36.223ZM25.8348 33.3312C23.8143 33.3312 21.8247 33.3312 19.8145 33.3312C19.8145 33.5171 19.8145 33.672 19.8145 33.8476C21.8349 33.8476 23.8246 33.8476 25.8348 33.8476C25.8348 33.672 25.8348 33.5274 25.8348 33.3312ZM8.57398 18.7895C8.74833 18.5416 8.93294 18.397 8.92268 18.2731C8.91243 18.1388 8.73808 17.9426 8.59449 17.9013C8.36886 17.8393 8.18425 18.0252 8.21502 18.2627C8.23553 18.397 8.38937 18.5313 8.57398 18.7895Z" fill="black"/>
<path d="M9.62007 8.28596C9.60981 8.43055 9.62007 8.57515 9.59956 8.70941C9.53802 9.02957 9.34316 9.21548 9.02522 9.2258C8.70729 9.2258 8.48166 9.0399 8.45089 8.71974C8.40986 8.42023 8.40987 8.10006 8.44063 7.80055C8.4714 7.45973 8.69703 7.2635 9.03548 7.27383C9.36367 7.28415 9.54828 7.48038 9.59956 7.79022C9.62007 7.95547 9.59956 8.12072 9.59956 8.28596C9.60981 8.28596 9.60981 8.28596 9.62007 8.28596Z" fill="black"/>
<path d="M12.0303 8.27561C12.0303 8.4202 12.0405 8.55446 12.0303 8.69906C11.9892 9.02955 11.7841 9.20512 11.4662 9.21545C11.1483 9.22578 10.9226 9.03988 10.8816 8.71971C10.8406 8.39955 10.8406 8.07938 10.8816 7.75921C10.9226 7.43905 11.138 7.26347 11.4662 7.25315C11.7739 7.24282 12.0098 7.47003 12.0405 7.80053C12.0508 7.96577 12.0303 8.12069 12.0303 8.27561Z" fill="black"/>
<path d="M30.4888 8.14325C31.0915 8.14325 31.5688 8.31658 31.9208 8.66325C32.2728 9.00458 32.4488 9.49258 32.4488 10.1272V10.7032H29.6328C29.6435 11.0392 29.7422 11.3032 29.9288 11.4952C30.1208 11.6872 30.3848 11.7832 30.7208 11.7832C30.9982 11.7832 31.2515 11.7566 31.4808 11.7032C31.7155 11.6446 31.9555 11.5566 32.2008 11.4392V12.3592C31.9822 12.4659 31.7555 12.5432 31.5208 12.5912C31.2862 12.6446 31.0008 12.6712 30.6648 12.6712C30.2275 12.6712 29.8408 12.5912 29.5048 12.4312C29.1688 12.2659 28.9048 12.0206 28.7128 11.6952C28.5208 11.3646 28.4248 10.9459 28.4248 10.4392C28.4248 9.93258 28.5102 9.50858 28.6808 9.16725C28.8568 8.82591 29.0995 8.56991 29.4088 8.39925C29.7182 8.22858 30.0782 8.14325 30.4888 8.14325ZM30.4968 8.99125C30.2622 8.99125 30.0702 9.06591 29.9208 9.21525C29.7715 9.36458 29.6835 9.59658 29.6568 9.91125H31.3288C31.3235 9.64991 31.2515 9.43125 31.1128 9.25525C30.9795 9.07925 30.7742 8.99125 30.4968 8.99125Z" fill="black"/>
<path d="M59.165 12.7549V15.0039H53.757V12.7549H59.165ZM52.171 17.0059H53.757V16.4859H59.165V16.9929H60.829V11.2859H52.171V17.0059ZM57.826 7.08688C58.229 7.43788 58.658 7.82788 59.074 8.24388C57.579 8.30888 56.071 8.37388 54.667 8.42588C55.291 7.47688 55.941 6.38488 56.487 5.35788L54.706 4.78588C54.264 5.92988 53.523 7.35988 52.795 8.49088C52.067 8.50388 51.391 8.52988 50.793 8.54288L50.884 10.1029C53.302 10.0119 56.929 9.86888 60.361 9.68688C60.712 10.1159 60.998 10.5189 61.193 10.8699L62.532 9.84288C61.869 8.72488 60.322 7.22988 59.035 6.17688L57.826 7.08688ZM71.879 5.09788H69.617V5.83888H71.879V5.09788ZM66.367 6.34588C65.977 5.92988 65.132 5.38388 64.495 5.03288L63.611 6.08588C64.261 6.47588 65.067 7.07388 65.431 7.50288L66.367 6.34588ZM66.12 9.66088C65.691 9.25788 64.846 8.75088 64.183 8.43888L63.338 9.51788C63.988 9.86888 64.833 10.4409 65.21 10.8439L66.12 9.66088ZM65.002 16.8629C65.522 15.6019 66.055 14.0939 66.471 12.7029L65.249 11.9229C64.768 13.4439 64.105 15.0819 63.637 16.0959L65.002 16.8629ZM71.06 10.6229H70.41V10.0509H71.06V10.6229ZM67.368 11.4289H68.343V8.84188L68.746 8.80288C68.772 8.93288 68.785 9.04988 68.798 9.15388L69.5 8.89388C69.448 8.49088 69.266 7.86688 69.045 7.39888L68.395 7.63288C68.434 7.73688 68.473 7.85388 68.512 7.97088L67.953 7.98388C68.356 7.52888 68.772 6.99588 69.149 6.50188V6.96988H72.256V6.82688C72.555 7.08688 72.841 7.39888 73.036 7.65888C72.919 7.78888 72.802 7.93188 72.698 8.04888L72.087 8.06188L72.178 8.99788L73.296 8.93288V9.41388L72.451 9.21888C72.347 9.69988 72.204 10.2199 71.996 10.6489V9.36188H69.513V11.3119H71.996V10.8829C72.23 10.9869 72.542 11.1559 72.698 11.2729C72.919 10.8569 73.153 10.2329 73.296 9.64788V11.4289H74.284V8.88088L74.791 8.84188C74.817 8.95888 74.843 9.06288 74.856 9.15388L75.636 8.81588C75.545 8.38688 75.298 7.74988 75.038 7.28188L74.297 7.58088C74.362 7.71088 74.427 7.85388 74.492 7.99688L73.777 8.00988C74.245 7.50288 74.739 6.90488 75.168 6.37188L74.31 5.89088C74.141 6.18988 73.907 6.52788 73.647 6.87888C73.569 6.78788 73.478 6.68388 73.374 6.59288C73.647 6.21588 73.946 5.73488 74.245 5.29288L73.361 4.86388C73.218 5.18888 72.984 5.65688 72.763 6.05988L72.594 5.92988L72.256 6.38488V6.16388H69.149V6.38488L68.369 5.94288C68.226 6.20288 68.031 6.48888 67.823 6.80088C67.745 6.70988 67.641 6.63188 67.55 6.54088C67.797 6.16388 68.083 5.70888 68.356 5.26688L67.485 4.82488C67.342 5.17588 67.121 5.64388 66.9 6.03388C66.835 5.99488 66.757 5.94288 66.692 5.90388L66.211 6.65788C66.562 6.91788 66.952 7.26888 67.238 7.58088C67.121 7.73688 66.991 7.89288 66.874 8.03588L66.081 8.06188L66.185 8.99788C66.549 8.97188 66.952 8.94588 67.368 8.90688V9.41388L66.51 9.21888C66.393 9.80388 66.211 10.4279 65.912 10.8959C66.146 10.9869 66.536 11.1819 66.731 11.2989C66.978 10.8699 67.212 10.2329 67.368 9.64788V11.4289ZM74.323 9.45288C74.544 9.98588 74.778 10.6749 74.856 11.1299L75.675 10.8569C75.571 10.4149 75.324 9.73888 75.103 9.21888L74.323 9.45288ZM69.526 9.01088H71.996V8.30888H69.526V9.01088ZM71.996 7.30788H69.526V8.00988H71.996V7.30788ZM69.474 10.6359C69.409 10.2719 69.266 9.69988 69.123 9.27088L68.382 9.43988C68.512 9.89488 68.642 10.4799 68.694 10.8569L69.474 10.6359ZM68.564 14.2109L68.668 13.8079H74.427V11.6499H67.056V12.5209H72.997V12.9239H67.446C67.29 13.7299 67.043 14.6919 66.809 15.3549L68.2 15.5369C68.239 15.4199 68.278 15.2899 68.317 15.1599H73.439C73.322 15.5239 73.205 15.7319 73.062 15.8359C72.932 15.9269 72.776 15.9399 72.516 15.9399C72.191 15.9399 71.333 15.9269 70.553 15.8489C70.774 16.1739 70.943 16.6419 70.969 16.9799C71.775 17.0059 72.568 17.0189 72.984 17.0059C73.504 16.9799 73.868 16.9149 74.193 16.6679C74.544 16.3819 74.778 15.8099 74.986 14.7699C75.038 14.5879 75.064 14.2109 75.064 14.2109H68.564ZM83.501 5.82588C84.45 7.60688 85.945 9.66088 87.167 10.9739C87.466 10.5449 88.064 9.94688 88.467 9.62188C87.284 8.52988 85.802 6.70988 85.048 5.18888L83.501 5.82588ZM79.848 5.16288C79.172 6.96988 77.95 8.75088 76.611 9.80388C77.014 10.0509 77.781 10.6359 78.093 10.9609C79.419 9.72588 80.784 7.71088 81.616 5.66988L79.848 5.16288ZM83.722 12.4559C84.203 13.0929 84.723 13.8339 85.191 14.5619C83.683 14.6399 82.162 14.7179 80.758 14.7829C81.551 13.3789 82.396 11.6369 83.072 10.0379L81.213 9.60888C80.719 11.2339 79.822 13.3139 78.99 14.8609L77.183 14.9259L77.391 16.5509C79.679 16.4469 82.955 16.2519 86.075 16.0439C86.296 16.4209 86.478 16.7719 86.608 17.0839L88.22 16.2389C87.583 14.9909 86.361 13.1579 85.23 11.7539L83.722 12.4559ZM92.393 11.9489V11.1559H94.655V11.9489H92.393ZM92.393 9.20588H94.655V9.99888H92.393V9.20588ZM98.516 9.20588V9.99888H96.241V9.20588H98.516ZM98.516 11.9489H96.241V11.1559H98.516V11.9489ZM101.428 13.8859H96.241V13.1839H100.076V7.97088H96.241V7.34688H101.051V5.94288H96.241V4.88988H94.655V5.94288H89.936V7.34688H94.655V7.97088H90.911V13.1839H94.655V13.8859H89.624V15.2769H94.655V17.0319H96.241V15.2769H101.428V13.8859ZM109.316 8.65988C110.295 8.65988 111.071 8.94154 111.643 9.50488C112.215 10.0595 112.501 10.8525 112.501 11.8839V12.8199H107.925C107.942 13.3659 108.103 13.7949 108.406 14.1069C108.718 14.4189 109.147 14.5749 109.693 14.5749C110.144 14.5749 110.555 14.5315 110.928 14.4449C111.309 14.3495 111.699 14.2065 112.098 14.0159V15.5109C111.743 15.6842 111.374 15.8099 110.993 15.8879C110.612 15.9745 110.148 16.0179 109.602 16.0179C108.891 16.0179 108.263 15.8879 107.717 15.6279C107.171 15.3592 106.742 14.9605 106.43 14.4319C106.118 13.8945 105.962 13.2142 105.962 12.3909C105.962 11.5675 106.101 10.8785 106.378 10.3239C106.664 9.76921 107.058 9.35321 107.561 9.07588C108.064 8.79854 108.649 8.65988 109.316 8.65988ZM109.329 10.0379C108.948 10.0379 108.636 10.1592 108.393 10.4019C108.15 10.6445 108.007 11.0215 107.964 11.5329H110.681C110.672 11.1082 110.555 10.7529 110.33 10.4669C110.113 10.1809 109.78 10.0379 109.329 10.0379ZM118.476 6.94388C118.658 7.52888 118.788 8.25688 118.814 8.75088L119.503 8.54288C119.464 8.03588 119.295 7.26888 119.087 6.67088L118.476 6.85288V6.30688H119.568V9.12788H118.476V6.94388ZM121.622 6.87888L120.998 6.65788C120.907 7.17788 120.686 7.93188 120.504 8.45188V6.30688H121.622V6.87888ZM120.504 9.12788V8.56888L121.037 8.76388C121.206 8.38688 121.414 7.82788 121.622 7.28188V9.12788H120.504ZM117.072 13.8989C118.645 13.8339 120.868 13.7169 122.974 13.5869L123 12.3909C122.246 12.4169 121.466 12.4559 120.712 12.4819V11.9099H122.792V10.7399H120.712V10.1679H122.818V5.26688H117.319V10.1679H119.347V10.7399H117.345V11.9099H119.347V12.5339C118.476 12.5599 117.683 12.5859 117.033 12.5989L117.072 13.8989ZM117.748 17.0189C118.294 16.4209 118.515 15.4329 118.671 14.5099L117.631 14.1979C117.514 15.0559 117.215 15.9529 116.747 16.4989L117.748 17.0189ZM118.762 14.2759C118.905 15.0039 119.009 15.9399 118.983 16.5509L119.984 16.4339C119.971 15.8099 119.867 14.8869 119.711 14.1589L118.762 14.2759ZM120.062 14.2239C120.309 14.9129 120.53 15.8099 120.582 16.3949L121.544 16.1999C121.466 15.6019 121.232 14.7309 120.985 14.0419L120.062 14.2239ZM121.323 14.1069C121.726 14.7569 122.116 15.6149 122.272 16.1869L123.247 15.7839C123.078 15.2119 122.662 14.3799 122.246 13.7689L121.323 14.1069ZM127.082 15.1079H124.677V12.3909H127.082V15.1079ZM128.993 8.98488V7.55488H126.484V4.88988H124.976V10.9869H123.273V17.0059H124.677V16.4989H127.082V16.9539H128.564V10.9869H126.484V8.98488H128.993ZM137.079 9.24488V9.94688H135.584V9.24488H137.079ZM139.991 9.94688H138.457V9.24488H139.991V9.94688ZM138.457 11.7539V11.0259H139.991V11.7539H138.457ZM135.584 11.7539V11.0259H137.079V11.7539H135.584ZM135.584 12.8719H137.079V14.7699H138.457V12.8719H139.991V13.4699C139.991 13.5999 139.952 13.6519 139.796 13.6649C139.666 13.6649 139.211 13.6649 138.808 13.6519C138.977 13.9769 139.133 14.4839 139.185 14.8609C139.965 14.8609 140.524 14.8609 140.94 14.6399C141.356 14.4319 141.473 14.1069 141.473 13.4829V8.12688H139.9C139.679 7.99688 139.406 7.86688 139.12 7.72388C139.965 7.20388 140.784 6.57988 141.434 5.96888L140.511 5.22788L140.212 5.30588H134.245V6.47588H138.873C138.548 6.70988 138.197 6.95688 137.833 7.16488C137.3 6.93088 136.754 6.72288 136.299 6.55388L135.298 7.38588C135.831 7.59388 136.455 7.85388 137.04 8.12688H134.128V14.8219H135.584V12.8719ZM133.413 7.15188C132.945 6.52788 131.944 5.69588 131.151 5.14988L130.085 6.13788C130.878 6.73588 131.853 7.63288 132.256 8.25688L133.413 7.15188ZM133.023 9.92088H129.89V11.3379H131.541V14.1719C130.943 14.6139 130.28 15.0429 129.721 15.3549L130.436 16.9019C131.164 16.3559 131.775 15.8489 132.373 15.3419C133.153 16.3429 134.18 16.7199 135.74 16.7849C137.326 16.8499 140.082 16.8239 141.681 16.7459C141.746 16.3169 141.98 15.6019 142.162 15.2379C140.381 15.3809 137.3 15.4199 135.753 15.3549C134.427 15.3029 133.53 14.9389 133.023 14.0679V9.92088Z" fill="black"/>
<path d="M56.7227 25.88H54.2861V32.4767H53.6855V25.88H51.2539V25.3673H56.7227V25.88ZM60.9166 32.4767C60.858 32.3107 60.8206 32.0649 60.8043 31.7394C60.5992 32.0063 60.3372 32.213 60.0182 32.3595C59.7024 32.5027 59.3671 32.5743 59.0123 32.5743C58.5045 32.5743 58.0927 32.4327 57.777 32.1495C57.4645 31.8663 57.3082 31.5083 57.3082 31.0753C57.3082 30.561 57.5214 30.1541 57.9479 29.8546C58.3775 29.5551 58.9749 29.4054 59.7398 29.4054H60.7994V28.8048C60.7994 28.4272 60.6822 28.131 60.4479 27.9161C60.2167 27.698 59.8782 27.589 59.4322 27.589C59.0253 27.589 58.6884 27.6932 58.4215 27.9015C58.1546 28.1098 58.0211 28.3605 58.0211 28.6534L57.4352 28.6486C57.4352 28.2286 57.6305 27.8657 58.0211 27.5597C58.4117 27.2504 58.8919 27.0958 59.4615 27.0958C60.0507 27.0958 60.5146 27.2439 60.8531 27.5402C61.1949 27.8331 61.3707 28.2433 61.3805 28.7706V31.2706C61.3805 31.7817 61.4342 32.1642 61.5416 32.4181V32.4767H60.9166ZM59.0807 32.0568C59.4713 32.0568 59.8196 31.9624 60.1256 31.7736C60.4348 31.5848 60.6594 31.3325 60.7994 31.0167V29.8546H59.7545C59.1718 29.8611 58.7161 29.9685 58.3873 30.1769C58.0585 30.382 57.8941 30.6652 57.8941 31.0265C57.8941 31.3227 58.0032 31.5685 58.2213 31.7638C58.4426 31.9591 58.7291 32.0568 59.0807 32.0568ZM63.9973 32.4767H63.4113V27.1935H63.9973V32.4767ZM63.3088 25.6652C63.3088 25.5545 63.3446 25.4617 63.4162 25.3868C63.4878 25.3087 63.5855 25.2697 63.7092 25.2697C63.8329 25.2697 63.9305 25.3087 64.0021 25.3868C64.077 25.4617 64.1145 25.5545 64.1145 25.6652C64.1145 25.7758 64.077 25.8686 64.0021 25.9435C63.9305 26.0184 63.8329 26.0558 63.7092 26.0558C63.5855 26.0558 63.4878 26.0184 63.4162 25.9435C63.3446 25.8686 63.3088 25.7758 63.3088 25.6652ZM67.2537 31.2609L67.3416 31.715L67.4588 31.2365L68.7283 27.1935H69.2264L70.4812 31.2023L70.618 31.7589L70.7303 31.2462L71.8143 27.1935H72.4197L70.8816 32.4767H70.3836L69.0262 28.2872L68.9627 27.9991L68.8992 28.2921L67.5662 32.4767H67.0682L65.535 27.1935H66.1355L67.2537 31.2609ZM77.2631 32.4767C77.2045 32.3107 77.1671 32.0649 77.1508 31.7394C76.9457 32.0063 76.6837 32.213 76.3646 32.3595C76.0489 32.5027 75.7136 32.5743 75.3588 32.5743C74.851 32.5743 74.4392 32.4327 74.1234 32.1495C73.8109 31.8663 73.6547 31.5083 73.6547 31.0753C73.6547 30.561 73.8679 30.1541 74.2943 29.8546C74.724 29.5551 75.3214 29.4054 76.0863 29.4054H77.1459V28.8048C77.1459 28.4272 77.0287 28.131 76.7943 27.9161C76.5632 27.698 76.2247 27.589 75.7787 27.589C75.3718 27.589 75.0349 27.6932 74.768 27.9015C74.501 28.1098 74.3676 28.3605 74.3676 28.6534L73.7816 28.6486C73.7816 28.2286 73.977 27.8657 74.3676 27.5597C74.7582 27.2504 75.2383 27.0958 75.808 27.0958C76.3972 27.0958 76.8611 27.2439 77.1996 27.5402C77.5414 27.8331 77.7172 28.2433 77.727 28.7706V31.2706C77.727 31.7817 77.7807 32.1642 77.8881 32.4181V32.4767H77.2631ZM75.4271 32.0568C75.8178 32.0568 76.1661 31.9624 76.4721 31.7736C76.7813 31.5848 77.0059 31.3325 77.1459 31.0167V29.8546H76.101C75.5183 29.8611 75.0626 29.9685 74.7338 30.1769C74.405 30.382 74.2406 30.6652 74.2406 31.0265C74.2406 31.3227 74.3497 31.5685 74.5678 31.7638C74.7891 31.9591 75.0756 32.0568 75.4271 32.0568ZM80.2461 27.1935L80.2656 28.0968C80.4642 27.7713 80.7116 27.5239 81.0078 27.3546C81.304 27.1821 81.6312 27.0958 81.9893 27.0958C82.5557 27.0958 82.9772 27.2553 83.2539 27.5743C83.5306 27.8934 83.6706 28.3719 83.6738 29.0099V32.4767H83.0928V29.005C83.0895 28.533 82.9886 28.1814 82.79 27.9503C82.5947 27.7192 82.2806 27.6036 81.8477 27.6036C81.4863 27.6036 81.1657 27.7176 80.8857 27.9454C80.609 28.17 80.404 28.4744 80.2705 28.8585V32.4767H79.6895V27.1935H80.2461ZM88.5559 32.4767V25.3673H90.6555C91.4172 25.3673 91.995 25.5252 92.3889 25.8409C92.7827 26.1534 92.9797 26.6157 92.9797 27.2277C92.9797 27.5955 92.8788 27.9161 92.677 28.1896C92.4784 28.4598 92.2049 28.6534 91.8566 28.7706C92.2701 28.8618 92.6021 29.0652 92.8527 29.381C93.1066 29.6967 93.2336 30.0613 93.2336 30.4747C93.2336 31.103 93.0301 31.5945 92.6232 31.9493C92.2196 32.3009 91.6564 32.4767 90.9338 32.4767H88.5559ZM89.1564 29.0587V31.9689H90.9582C91.4725 31.9689 91.8794 31.8387 92.1789 31.5782C92.4816 31.3146 92.633 30.95 92.633 30.4845C92.633 30.045 92.4882 29.6984 92.1984 29.4445C91.912 29.1873 91.5148 29.0587 91.007 29.0587H89.1564ZM89.1564 28.5558H90.7971C91.2984 28.546 91.6857 28.4288 91.9592 28.2042C92.2359 27.9764 92.3742 27.646 92.3742 27.213C92.3742 26.7573 92.231 26.422 91.9445 26.2072C91.6613 25.9891 91.2316 25.88 90.6555 25.88H89.1564V28.5558ZM98.3504 31.8077C97.9988 32.3188 97.4373 32.5743 96.6658 32.5743C96.1027 32.5743 95.6746 32.4116 95.3816 32.0861C95.0887 31.7573 94.9389 31.2723 94.9324 30.631V27.1935H95.5135V30.5577C95.5135 31.5636 95.9204 32.0665 96.7342 32.0665C97.5805 32.0665 98.116 31.7166 98.3406 31.0167V27.1935H98.9266V32.4767H98.3602L98.3504 31.8077ZM104.014 31.1339C104.014 30.8442 103.897 30.6115 103.662 30.4357C103.431 30.2599 103.081 30.1232 102.613 30.0255C102.144 29.9246 101.779 29.8107 101.519 29.6837C101.262 29.5535 101.07 29.3956 100.943 29.2101C100.819 29.0245 100.757 28.7999 100.757 28.5363C100.757 28.1196 100.931 27.7762 101.28 27.506C101.628 27.2325 102.074 27.0958 102.618 27.0958C103.207 27.0958 103.679 27.2423 104.034 27.5353C104.392 27.825 104.571 28.2042 104.571 28.673H103.985C103.985 28.3637 103.855 28.1066 103.594 27.9015C103.337 27.6964 103.011 27.5939 102.618 27.5939C102.233 27.5939 101.924 27.6801 101.69 27.8527C101.459 28.0219 101.343 28.2433 101.343 28.5167C101.343 28.7804 101.439 28.9855 101.631 29.132C101.827 29.2752 102.18 29.407 102.691 29.5275C103.205 29.6479 103.589 29.7765 103.843 29.9132C104.1 30.0499 104.291 30.2143 104.414 30.4064C104.538 30.5984 104.6 30.8312 104.6 31.1046C104.6 31.5506 104.419 31.907 104.058 32.174C103.7 32.4409 103.231 32.5743 102.652 32.5743C102.037 32.5743 101.537 32.4262 101.153 32.13C100.772 31.8305 100.581 31.4529 100.581 30.9972H101.167C101.19 31.339 101.333 31.6059 101.597 31.798C101.864 31.9868 102.216 32.0812 102.652 32.0812C103.059 32.0812 103.387 31.9917 103.638 31.8126C103.889 31.6336 104.014 31.4073 104.014 31.1339ZM108.633 28.8634H110.796V29.4103H108.633V31.7638H108.042V29.4103H105.923V28.8634H108.042V26.588H108.633V28.8634Z" fill="black"/>
</svg>
